<?xml version="1.0" encoding="utf-8"?>
<!-- Generator: Adobe Illustrator 26.2.1, SVG Export Plug-In . SVG Version: 6.00 Build 0)  -->
<svg version="1.1" id="Layer_1" xmlns="http://www.w3.org/2000/svg" xmlns:xlink="http://www.w3.org/1999/xlink" x="0px" y="0px"
	 viewBox="0 0 5000 3000" style="enable-background:new 0 0 5000 3000;" xml:space="preserve">
<style type="text/css">
	.st0{fill:#FFD500;}
</style>
<g id="XMLID_35_">
	<g id="XMLID_77_">
		<path id="XMLID_78_" class="st0" d="M2080.7,510.2c18.2-16.6,40.8,2.5,48.8,19.9c13.1,21.3-0.8,46.8,7.6,68.9
			c102.8,270.3,195.3,544.4,290.2,817.6c98.5-276.8,189.5-556.4,295.9-830.4c-12.4-31.3,0.9-74,35.5-83.5
			c43.4,14.9,21.2,74.4-7.9,93.3c-86.7,314.1-186.6,624.4-285.1,935c32.4,96.6,66.2,192.7,98,289.5c110.9,11.6,221,31.4,327.7,63.8
			c7.3-20.2,13.7-40.9,23.9-59.9c39.9,8.2,76.8,26.7,115.5,38.8c16.2-29,32.1-58.1,48.8-87c-4.8-3-14.6-9.1-19.4-12.1
			c12.5-21.7,24.6-43.7,36.6-65.7c-14.8-8.4-29.8-16.5-44.6-24.8c6.1-12,12.5-23.9,18.9-35.8c8.5,4.5,17.1,9.1,25.8,13.7
			c8.6-16.2,17.3-32.3,26.1-48.4c-15.1-20.8-25.5-45.2-42.3-64.6c-120.1-82.4-242.4-162.8-352.6-258.6
			c169.2,90.4,335.2,187,503.6,278.7c12-20.1,23.7-40.6,35.4-60.9c-167.1-94.5-336.4-185.3-502.6-281.5
			c141.5,43.8,276.2,106.6,411.2,166.8c43.7-4.9,88.3-0.9,130.2,12.2c6.5-11.6,12.9-23.2,19.7-34.8c-8.4-5.5-16.7-11-24.9-16.5
			c17.4-28.1,33.7-56.7,48.5-86.2c13.4,6.7,26.8,13.6,40.3,20.4c58.4-103.9,114.3-209.4,175.1-311.8c4.4,1,13.3,2.7,17.8,3.7
			c-59,105.7-117.4,211.8-177.1,317.1c12.8,7.3,25.6,14.6,38.4,21.9c-16.3,29.9-33.4,59.3-49.4,89.1c-5.9-3.7-18-11.1-24-14.8
			c-7,12-14,24-21,35.9c37.1,27.6,57.1,69.7,83,106.3c123.2,84.4,247.5,168.2,361.6,265c-171.6-92.6-340.1-191.1-511.8-283.6
			c-11.1,20.7-22.3,41.4-33,62.5c168.4,92.2,335.4,186.9,503.5,279.4c-141.4-39.6-273.7-105.7-408.3-163.3
			c-26.2-2.3-52.7,1.7-78.9-1.8c-9,15.7-17.9,31.4-26.8,47.2c6.2,3.5,18.7,10.6,24.9,14.1c-6.7,11.6-13.4,23.2-20,34.9
			c-15-8.5-30-17-45-25.3c-11.6,21.9-23.8,43.6-35.4,65.6c-7.5-3-15-5.9-22.5-9c-24.4,45.9-50.2,91.1-75.7,136.5
			c112.9,51.4,221.5,112.9,320.4,187.9c14.5-17.3,29.5-34.1,44.6-50.8c31.5,24,61.6,49.7,91.3,75.9c5.6-5.6,16.6-16.6,22.2-22.1
			c35.4,35.3,70.9,70.7,106.4,105.9c-21.6,22.1-43.5,44.1-65.9,65.6c53.8,59.4,104.6,121.6,151.4,186.7c-14.4-0.3-28.5-0.3-42.7-0.4
			c-144.4-197.3-333.7-361.7-551.2-473.7c-402.7-210.6-899.1-228.2-1317.4-51.8c-247.8,104.2-465.7,274.6-631.9,485.3
			c14.6,0.9,29.1,1.9,43.6,3.1c230.9-300.4,584.3-498.9,957.4-555.9c430.1-69.8,887,59.2,1219.5,340.2
			c88.5,74.8,166.4,160.8,236.6,252.7c-814.3,0.3-1628.6,0.4-2442.8-0.1c5.6-6.7,16.5-20.1,22-26.9c-11.8-4.4-23.7-8.3-35.7-11.9
			c-9.5,12.8-19.1,25.6-28.5,38.5c-14.3,0.5-28.6,0.9-42.9,1.2c50.8-75.3,110.8-144.3,174.5-209.1c-31.2-32.6-63.6-63.9-93.7-97.5
			c34.3-35,68.8-69.8,103.8-104.1c17.3,17.6,34.9,34.9,53.5,51.1c6.6-4.8,13.3-9.6,19.9-14.5c-52.5-62.1-67.7-155.5-30-228.4
			c42.9-64.3,78.4-133.6,130.4-191.1c3.6-13.9,9.4-27.1,18.8-38c108.6-137.1,203.9-284.2,292.3-434.8c11.6-24.1-12.2-74.5,26.8-79
			c29.6-34,73.6-59.7,119.9-53.8c69.8,6.3,126.1,77.6,111.3,147.3c-1.5,30.6-29.1,52.3-30.9,82.2c-4.2,3.4-12.6,10.3-16.7,13.7
			c-33.1,3.2-69.1,10.5-92.9,35.6c-54.6,52.2-109.4,104.3-162.3,158.3c2.7,4.3,8,13,10.7,17.4c-9,50.2-7,107.9,24.6,150.5
			c17,29.6,36.8,57.6,51.1,88.5c1.5,23.2-9.6,46.7-1.5,69.6c36.4-13,72.4-27.4,109.6-38.2c8.3,20.1,16.1,40.6,23.8,61
			c106.5-31.9,216.3-52.8,327-63.3c31.6-95.7,65.3-190.6,96.2-286.4c-0.3-2.6-0.8-7.7-1-10.3c-96.5-308.9-196.8-616.7-282.6-928.9
			C2079.4,576,2059.9,538.7,2080.7,510.2z M2426.8,1657.4c-18.1,52.6-34.5,105.7-51.3,158.5c34.6,0.2,69.2,0.4,103.8,0
			C2461.5,1763.3,2448.1,1708.9,2426.8,1657.4z M1596.7,1727.6c-3.8-2.7-11.2-8.2-14.9-11.1c-16.8,19.5-39.7,32.4-56.2,52.1
			c-50,66.1-117.6,115.9-172.7,177.2c-17.8,55.8,1.7,120.8,40.6,163.8c10.8-8.3,21.6-16.5,32.3-24.7c14.7,16.9,29.4,33.7,44.7,50.1
			c101.9-76.1,212.5-139.9,329-190.6c-6.3-17.6-12.8-35-19.7-52.4c1.2-4.7,3.5-14.3,4.7-19.1c-15.1-7.3-32.3-13.5-41.6-28.6
			c-30.1-46.7-52.4-98.1-83.7-143.9C1634.4,1691.6,1615.6,1715.8,1596.7,1727.6z M2030.8,2019.4
			c-166.3,43.5-326.8,114.1-465.3,216.5c256.5-142.7,550.7-209.7,842.9-216c305.2-0.4,613.1,68.3,881.4,216.1
			c-101.6-74-214.6-131.8-332.3-175.3c-5.1,4.1-10.3,8.1-15.5,12c-0.4-4.6-1.1-13.9-1.5-18.6c-116.1-37-234.7-68.1-356.2-80
			C2399.1,1954.1,2210.4,1970,2030.8,2019.4z"/>
	</g>
	<g id="XMLID_70_">
		<path id="XMLID_71_" class="st0" d="M497.4,1204.3c31.8,50.8,52.5,110.3,100.7,149.7c10.8-19.3,12.7-47.6,33.7-59.3
			c26.1,9.7,28.2,40.9,28.2,64.6c-17.5,11.6-39.1-2.3-58.2-2.5c32.6,38.8,73.8,69.2,115,98.2c7.4-18.4,12.3-38.5,24.2-54.6
			c9.1-13.5,22.1-0.1,28.2,8.5c10,15.2,7.8,34.7,10.3,52.1c-19.5,1.3-38.6-2.5-57.6-6.1c19.2,20.7,44.5,33.9,68.2,48.5
			c-7.4,39.8,4.8,78.9,27.9,111.4c-29.8,29.8-59.4,59.8-89.5,89.1c-38.5-9-78.7-11.2-116.3-23.2c-16.9-19.8-29-43.1-42.9-64.9
			c-35-33-67.5-68.4-103.5-100.4c-3.9,3-11.7,9-15.6,11.9c3.9,15.4,7.1,31,9.3,46.8c-28.1,7.6-62.5,0.4-72.1-30.3
			c22.6-12.1,46.3-22.1,68.1-35.6c-29.2-26.7-61.8-49.2-92.5-74c-1.3-13.4,17.3-17.7,24.6-26.7
			C453.8,1360.3,471.6,1276.4,497.4,1204.3z M552.3,1374c-22.4,4.9-14.2,42.2,8.6,35.9C587.6,1408.4,576.4,1364.3,552.3,1374z
			 M495.7,1466.1c-17.5,11.2,4.4,41.1,21,29.5C546.3,1488.1,515.1,1440.7,495.7,1466.1z M656,1476.8c-24.2,6.2-13.3,43.7,9.9,37.1
			C689.7,1508.4,677.2,1468.6,656,1476.8z M610,1562.1c-23,6.1-21.2,38.5,2.9,40.4C640.7,1599.8,635.6,1563.2,610,1562.1z"/>
	</g>
	<g id="XMLID_61_">
		<path id="XMLID_62_" class="st0" d="M4451.5,1272.2c14.4-11.2,30.7-19.6,46.6-28.5c6.1,9.8,12.4,19.8,18.6,29.6
			c-4.1,5.4-12.3,16.2-16.4,21.5c15-1.3,31.3-13.6,46.2-6.8c8.3,11.4,14.5,24.3,23,35.6c16.1,8.4,31.1-6.9,46-11.2
			c5.4,3.6,16.2,10.9,21.5,14.5c-6.2,14.8-17.5,26.3-31.2,34.6c-74.8,49.9-140.5,114-188.7,190.3c-25.5,35-44.2,74.7-72.9,107.3
			c-43.6-9.2-89.5-5.6-128,18.2c-36.1-34.2-69.9-70.8-105.9-105c19.6-25.3,25.1-57,15.4-87.6c10.3-13.5,22.4-25.3,34.2-37.6
			c-7.8,0.4-23.4,1-31.1,1.3c-5-10.3-8.5-21.1-10.4-32.2c13.3-9.6,27.8-17.4,42-25.7c6.3,8.9,12.8,17.9,19.1,26.9
			c-4.6,9.4-9.1,18.9-13.4,28.4c23.2-0.4,43.8-13,62.4-25.8c-8.5-0.8-25.7-2.4-34.3-3.1c-3.5-9.8-7-19.8-10.4-29.7
			c14.4-8.6,28.7-17.2,43.3-25.8c18.4,15.6,20.6,36.6,10.1,57.9c19.9-8,39.8-16.9,57.7-29.3c-25.6,7.6-37.4-11.2-46.4-30.9
			c16.5-10.2,33.6-19.6,51.4-27.4c7.8,17.1,19.9,35.1,1.8,51.4c23,3.3,42.5-12.3,59.7-25.2c-25.7,12.8-36.5-9.8-46.9-28.3
			c16.5-9.1,33-18,49.9-26.4c4,6.5,11.9,19.7,15.9,26.2c-3.8,9.7-7,19.6-10.3,29.5c19-8.2,38-16.6,56.6-25.9
			c-23.6,3.8-35.4-13.3-44.2-31.9c15.9-9.8,31.8-19.7,48-28.9c10.6,17.2,26.5,36.5,4.5,53.6c18-4.7,35.4-11.7,52.3-19.4
			c-0.1-2.2-0.4-6.4-0.6-8.5C4465.9,1311.7,4459,1286.8,4451.5,1272.2z M4514.8,1306.7c-11.5,11.9,7.3,34.6,20.3,21.5
			C4549.4,1315.5,4527.9,1293.5,4514.8,1306.7z M4462,1334.2c-14.9,12.2,8.9,35.2,20.3,19.6
			C4494.8,1340.9,4474.5,1320.5,4462,1334.2z M4395,1385.5c12.5,14.7,33.4-7.6,21-20.3C4403.7,1352.5,4381.6,1372.5,4395,1385.5z
			 M4334.8,1402.3c-5,10.7,11.4,23.7,18.3,11.6C4369.7,1400.2,4337.2,1381.8,4334.8,1402.3z M4273.3,1425.4
			c-13.2,12.5,8.8,33.9,20.7,20.5C4305.9,1433.1,4285.8,1410.2,4273.3,1425.4z M4211.5,1458.7c-14.6,0.2,3.2,29.1,10.8,18.7
			C4240,1472.2,4224.9,1442.4,4211.5,1458.7z"/>
	</g>
	<path id="XMLID_17_" class="st0" d="M4085.7,1594.9c36.5,35,71.6,71.4,107.9,106.4c-32.5,32.2-64.9,64.5-97,97
		c-36.6-34.5-71-71.1-107.1-105.9C4021.5,1659.6,4054.5,1628.1,4085.7,1594.9z"/>
	<path id="XMLID_16_" class="st0" d="M488.3,1654.8c15.6-20.7,42.1-26.5,63.1-39.6c6.6,21.2,10,43.3,9.1,65.5
		C533.6,1680.9,506.1,1677.4,488.3,1654.8z"/>
	<path id="XMLID_15_" class="st0" d="M742,1716.7c30-29.8,59.5-60,89.6-89.6c36.3,36.9,75,71.3,111.1,108.5
		c-30.5,31.1-61.3,61.8-92.4,92.3C813.2,1791.8,777.9,1754,742,1716.7z"/>
	<path id="XMLID_14_" class="st0" d="M3905.4,1776.3c25.7-25.4,51.3-51,76.2-77.3c36.6,34.8,71.6,71.1,107.9,106.1
		c-25.6,25.8-51.8,50.8-76.8,77.2C3976.5,1847.5,3941.9,1810.9,3905.4,1776.3z"/>
	<path id="XMLID_13_" class="st0" d="M950.8,1741.7c29,27.9,56.7,57.1,86.2,84.5c-32.7,31.9-64.2,65-97.5,96.3
		c-26.3-30.3-55.2-58.1-82.9-87.2C888.3,1804.6,919.2,1772.8,950.8,1741.7z"/>
	<g id="XMLID_52_">
		<path id="XMLID_53_" class="st0" d="M3827.7,1855c22.4-24.3,46.3-47.1,69.6-70.5c36.4,34.7,73.2,69,108.1,105.3
			c-24.4,23.5-48.1,47.8-72.2,71.6C3898.1,1926,3861.4,1891.8,3827.7,1855z M3893.5,1875.8c5.8,5.5,11.6,11,17.5,16.4
			c6.8-5,13.6-10.1,20.4-15.1C3922.2,1858.1,3904.2,1858.2,3893.5,1875.8z"/>
	</g>
	<g id="XMLID_48_">
		<path id="XMLID_49_" class="st0" d="M946.1,1928.3c32.8-31.9,64.7-64.7,97.2-96.9c30.1,31.6,62.5,60.8,93.8,91.1
			c-33.7,32.8-66.6,66.3-99.9,99.5C1007.7,1989.9,977,1958.9,946.1,1928.3z M1030.9,1942.3c21.3,14.3,32.7-11.2,29.4-29.9
			C1040.4,1903.2,1011.6,1922.9,1030.9,1942.3z"/>
	</g>
	<path id="XMLID_8_" class="st0" d="M3751.1,1930.6c22.7-22.9,45.4-45.8,68.4-68.2c35.9,35,70.9,71,106.6,106.2
		c-23,22.8-45.8,45.8-68.9,68.4C3821.8,2001.7,3786.2,1966.3,3751.1,1930.6z"/>
	<path id="XMLID_7_" class="st0" d="M1044.5,2028.4c33.1-33,66-66.2,99.2-99c23.6,24.5,49.2,47,73.4,71
		c-34.6,33.5-68.2,67.9-102,102C1090.9,2078.4,1068,2053.2,1044.5,2028.4z"/>
	<g id="XMLID_42_">
		<path id="XMLID_43_" class="st0" d="M3679.8,2002c21.5-21.2,42.9-42.4,63.5-64.5c35.9,35.3,71,71.5,107.4,106.2
			c-21.4,21.5-42.6,43-64.3,64.2C3750.8,2072.6,3715.7,2036.7,3679.8,2002z M3763,2041.7c23.6-8,11.8-25.7-2-37.1
			C3751.5,2018.1,3739.3,2034.5,3763,2041.7z"/>
	</g>
	<path id="XMLID_4_" class="st0" d="M1223.8,2007.1c24,25.1,49.2,49.1,74.6,72.7c-35.1,34.2-68.8,69.9-104.5,103.4
		c-24.1-24.7-49.2-48.4-72-74.5C1156.6,2075.6,1190.2,2041.2,1223.8,2007.1z"/>
	<path id="XMLID_3_" class="st0" d="M3671.5,2009.8c38,33.2,72.3,70.2,108.2,105.5c-19.6,19-38.8,38.5-58.2,57.7
		c-35.5-35.3-71-70.9-106.5-106.3C3633.9,2047.7,3653,2029,3671.5,2009.8z"/>
	<g id="XMLID_36_">
		<path id="XMLID_37_" class="st0" d="M3551.4,2129c19.3-18.1,38.2-36.8,57-55.4c35.4,35.5,70.9,70.9,106.1,106.6
			c-19.3,19-38.5,38.1-57.2,57.7C3623.2,2200.3,3585.6,2166.2,3551.4,2129z M3610,2159.5c6.7,6.1,13.4,12.1,20.3,18.1
			c6.4-8.4,21-16.9,8.8-27.5C3633.4,2132.3,3618.4,2155.5,3610,2159.5z"/>
	</g>
</g>
</svg>
